<svg version="1.1" id="Layer_1" xmlns="http://www.w3.org/2000/svg" xmlns:xlink="http://www.w3.org/1999/xlink" x="0px" y="0px"
	 width="100%" viewBox="0 0 225 184" enable-background="new 0 0 225 184" xml:space="preserve">
<path fill="#FCFDFD" opacity="1.000000" stroke="none" 
	d="
M143.000000,185.000000 
	C95.333336,185.000000 48.166672,185.000000 1.000006,185.000000 
	C1.000004,123.666672 1.000004,62.333347 1.000002,1.000015 
	C75.999992,1.000010 150.999985,1.000010 225.999969,1.000005 
	C225.999985,62.333317 225.999985,123.666634 226.000000,184.999969 
	C198.500000,185.000000 171.000000,185.000000 143.000000,185.000000 
M131.471115,151.857468 
	C131.656387,151.571960 131.841660,151.286453 132.707199,150.621552 
	C133.138000,149.426483 133.968460,148.219742 133.933914,147.038284 
	C133.729050,140.032776 133.323700,133.033127 132.925537,125.337753 
	C131.925598,124.551582 130.925674,123.765411 129.834808,122.344292 
	C129.577316,121.554565 129.319824,120.764847 129.499222,119.625145 
	C129.005753,119.083015 128.512283,118.540886 127.575066,117.430214 
	C125.467018,114.929543 125.444176,112.504143 127.746971,110.079971 
	C130.197144,107.500671 132.590515,104.867424 135.563461,102.766914 
	C144.470535,107.871063 148.318756,116.312691 150.400421,126.278206 
	C150.780624,126.960602 151.160828,127.642998 151.628326,129.061432 
	C151.759521,130.041168 151.890701,131.020889 151.659668,132.323929 
	C151.928528,133.001724 152.197388,133.679535 152.591721,134.902054 
	C152.670761,135.266220 152.749802,135.630386 152.396454,136.465195 
	C152.643967,137.639404 152.891479,138.813599 153.185318,140.813202 
	C153.340256,142.448181 153.495193,144.083176 153.291458,146.564865 
	C153.794098,149.180313 151.448593,153.526993 156.069519,153.791946 
	C164.823090,154.293869 173.625885,153.937149 183.700500,153.937149 
	C182.474945,150.348785 181.564117,147.681946 180.607773,144.423843 
	C180.493347,144.046844 180.378937,143.669861 180.572052,142.726517 
	C180.134277,142.077347 179.696487,141.428177 179.113449,140.081070 
	C178.096970,137.719269 177.080490,135.357468 176.570526,132.738358 
	C177.047302,132.160324 177.524078,131.582291 178.624435,131.080795 
	C179.021744,131.208664 179.419067,131.336548 179.921707,131.973679 
	C180.604141,132.066101 181.286560,132.158508 182.593475,132.302155 
	C182.990616,132.426788 183.387741,132.551437 184.128098,133.258987 
	C188.436295,134.125122 192.723312,135.126038 197.060471,135.808044 
	C199.766190,136.233521 200.928879,134.701004 200.904648,131.979553 
	C200.848557,125.677940 201.018967,119.372765 200.861038,113.074959 
	C200.829666,111.823982 199.867996,109.621063 199.119629,109.524246 
	C194.798508,108.965195 190.412628,108.906464 185.418411,108.696884 
	C185.014603,108.586609 184.610779,108.476334 183.906982,107.833237 
	C182.607132,107.862915 181.307281,107.892593 179.375244,107.933571 
	C178.964645,107.844139 178.554031,107.754715 177.962814,107.055908 
	C176.650925,106.962540 175.339020,106.869171 173.403076,106.757011 
	C172.999222,106.661362 172.595352,106.565704 171.897339,105.855751 
	C168.095200,104.780182 164.293060,103.704613 159.825348,102.396042 
	C155.565430,99.227356 151.305511,96.058670 147.570419,92.220482 
	C151.828690,88.106750 155.185089,93.037117 159.154205,94.035469 
	C162.396820,94.753044 165.639420,95.470612 169.113770,96.888527 
	C169.480209,97.201736 169.885849,97.823814 170.207367,97.783012 
	C178.413803,96.741547 186.624207,95.712677 194.796234,94.439713 
	C195.961563,94.258194 196.933472,92.835213 198.568344,91.626099 
	C204.412247,86.958817 203.956558,83.838867 196.860001,80.969185 
	C183.195465,75.443581 169.544205,76.372826 156.160736,81.796822 
	C151.336792,83.751854 147.908768,82.876511 144.972870,78.010162 
	C144.846207,76.818375 144.719543,75.626587 144.713699,73.775093 
	C147.029846,71.390915 149.345978,69.006737 152.313538,66.785950 
	C152.911850,66.250908 153.510162,65.715866 154.572296,64.876915 
	C154.911469,64.731094 155.250641,64.585281 156.207916,64.717911 
	C156.855789,64.241791 157.503662,63.765671 158.755844,63.059566 
	C159.376633,62.878857 159.997406,62.698147 161.207947,62.793026 
	C161.880325,62.376362 162.552704,61.959698 163.803467,61.338539 
	C164.207108,61.275818 164.610748,61.213097 165.503891,61.622345 
	C167.672287,61.000355 169.840698,60.378365 172.672577,59.611622 
	C173.780060,59.385818 174.887558,59.160011 176.287582,59.450542 
	C177.269928,59.169598 178.252258,58.888653 180.095566,58.434933 
	C183.062088,58.278511 186.028625,58.122089 189.553375,58.542194 
	C192.979218,58.372787 196.447205,58.455719 199.807663,57.894665 
	C200.956329,57.702885 202.667435,55.922649 202.703598,54.821621 
	C202.956375,47.122250 202.837372,39.410675 202.837372,30.285160 
	C198.398422,31.561619 194.734818,32.615128 190.311478,33.890686 
	C189.029800,34.174549 187.748108,34.458408 185.890656,34.375454 
	C185.199860,34.790989 184.509064,35.206524 183.061859,35.762711 
	C180.221497,36.926041 177.381149,38.089375 174.540787,39.252705 
	C174.264282,38.948227 173.987778,38.643749 173.711273,38.339272 
	C175.565582,33.986515 177.419891,29.633759 179.902466,24.939302 
	C180.813828,21.377316 181.725189,17.815327 182.688599,14.049964 
	C172.875549,14.049964 164.032394,14.049964 154.291718,14.049964 
	C154.052261,17.447950 153.814957,20.815420 153.355560,24.875004 
	C153.317444,25.597948 153.279312,26.320890 152.768829,27.608297 
	C152.491135,30.409515 152.213455,33.210732 151.763199,36.634647 
	C151.709824,37.277225 151.656448,37.919804 151.050095,38.951317 
	C150.870697,40.017166 150.691315,41.083019 150.281570,42.749241 
	C150.229904,43.173393 150.178223,43.597546 149.620132,44.373325 
	C149.502243,44.948223 149.384354,45.523125 148.973434,46.666676 
	C148.844940,47.291656 148.716446,47.916637 148.002731,48.857845 
	C147.404083,50.265068 146.805450,51.672291 145.959442,53.416279 
	C145.959442,53.416279 145.873978,53.825298 145.271179,54.089909 
	C143.893326,56.089256 142.515472,58.088604 141.046921,60.047657 
	C141.046921,60.047657 141.087158,60.138401 140.440094,60.180691 
	C139.551422,61.066181 138.662750,61.951668 137.386551,62.924313 
	C137.386551,62.924313 137.060379,63.151005 136.345932,63.082520 
	C134.815933,63.739456 133.285934,64.396385 131.252731,64.627678 
	C127.166710,60.915009 126.718826,57.161499 129.391876,51.977814 
	C133.888092,43.258556 135.082672,33.745636 133.456573,23.699148 
	C133.110825,23.125702 132.765060,22.552254 132.088318,21.323811 
	C130.034439,18.278849 127.980568,15.233886 125.883614,11.439980 
	C124.014709,9.450749 122.171013,6.630222 119.840988,11.802289 
	C118.922874,12.545504 118.004761,13.288718 116.374916,14.101022 
	C112.487450,17.536804 111.205460,22.054724 111.001221,27.763956 
	C110.969048,28.504711 110.936874,29.245464 110.158195,30.180576 
	C108.656296,33.239861 107.719109,36.261871 110.830994,39.836609 
	C111.435730,42.958817 110.611221,46.807816 115.000023,47.989368 
	C115.000023,47.989368 114.973389,47.977375 114.914345,48.737099 
	C115.581360,50.007561 116.152611,51.340374 116.932068,52.537628 
	C120.210526,57.573330 120.038025,58.825829 114.616997,62.481022 
	C103.419449,55.500446 99.579346,44.345509 97.585907,32.214355 
	C96.627235,26.380302 95.974892,20.495911 95.245155,15.088743 
	C86.020554,15.088743 77.495506,15.088743 67.471703,15.088743 
	C69.423843,23.030594 71.267784,30.532288 73.236969,38.543472 
	C64.680695,35.853996 56.892509,31.672485 47.753845,32.777126 
	C47.753845,40.915665 47.753845,48.681774 47.753845,56.928898 
	C50.265774,57.198601 52.696617,57.478848 55.131535,57.717484 
	C62.905827,58.479416 70.777100,58.704865 78.433167,60.107620 
	C88.450584,61.943027 98.435860,64.456390 103.789230,74.892403 
	C97.778290,81.302490 95.161499,82.209373 89.851974,78.979851 
	C79.297432,74.421989 68.243645,74.129234 57.114693,75.589539 
	C54.305054,75.958221 51.693836,77.839027 48.276657,78.971497 
	C46.090130,81.194031 43.903603,83.416557 41.717072,85.639084 
	C44.308895,87.768501 46.899315,89.899635 49.496964,92.021935 
	C49.618526,92.121246 49.802216,92.149414 49.960941,92.197670 
	C63.393291,96.280952 76.498184,95.144180 89.335503,89.728600 
	C94.968971,87.352058 97.659142,88.453926 100.103691,94.977501 
	C99.765152,95.389587 99.426620,95.801666 98.445465,96.230537 
	C97.572456,97.113861 96.699440,97.997185 95.427635,99.018738 
	C95.427635,99.018738 95.106613,99.292755 94.392349,99.245087 
	C90.278488,101.245491 86.164627,103.245895 81.299004,105.272835 
	C73.871490,106.533630 66.443985,107.794426 58.710770,108.524910 
	C57.717953,108.855553 56.725132,109.186188 55.162704,109.643929 
	C54.775837,109.680740 54.388966,109.717552 53.429173,109.277596 
	C49.246876,108.406792 47.757435,110.131866 47.975044,114.321609 
	C48.257168,119.753372 47.954819,125.214378 48.190884,130.650345 
	C48.259048,132.219910 49.047760,134.837662 49.971611,135.062546 
	C51.811867,135.510483 53.974861,134.632523 56.788780,134.230896 
	C58.192341,133.819687 59.595901,133.408478 61.794132,132.918106 
	C62.826042,132.712112 63.857952,132.506104 65.590408,132.540024 
	C67.874847,133.179764 70.572655,128.714127 72.105919,133.669678 
	C71.465797,135.446396 70.825668,137.223099 69.625603,139.497360 
	C68.616592,144.386749 67.607590,149.276154 66.474632,154.766190 
	C76.243690,154.766190 84.545654,154.836777 92.843132,154.675964 
	C93.869118,154.656097 95.623627,153.519028 95.748322,152.702347 
	C96.183990,149.849030 96.052887,146.909180 96.191574,143.310791 
	C96.259827,142.620834 96.328079,141.930893 96.995796,140.964905 
	C97.067993,139.311249 97.140190,137.657608 97.287613,135.324554 
	C97.403793,134.651428 97.519974,133.978302 98.177856,132.892700 
	C98.240234,131.810944 98.302605,130.729172 98.599739,128.905563 
	C100.656097,119.528358 104.591110,111.260612 113.163628,105.604034 
	C119.355934,110.783714 119.267921,110.916168 116.049706,117.941925 
	C110.546318,129.956497 108.270859,142.222717 114.556999,154.700546 
	C117.948692,161.432953 125.853828,162.309570 129.746231,155.909119 
	C130.172089,154.599609 130.597946,153.290085 130.995010,151.997772 
	C130.995010,151.997772 130.982712,152.028976 131.471115,151.857468 
z"/>
<path fill="#EDAE51" opacity="1.000000" stroke="none" 
	d="
M144.944016,78.903183 
	C147.908768,82.876511 151.336792,83.751854 156.160736,81.796822 
	C169.544205,76.372826 183.195465,75.443581 196.860001,80.969185 
	C203.956558,83.838867 204.412247,86.958817 197.943344,91.753288 
	C196.812042,91.230545 196.305725,90.580612 195.882019,89.574875 
	C194.548065,84.780045 190.636887,84.625282 186.775085,83.746964 
	C185.672516,83.412804 184.794983,83.330933 183.469849,83.148109 
	C179.045547,83.127953 175.068848,83.208748 170.760666,83.191605 
	C169.618362,83.390526 168.807541,83.687378 167.630035,83.975311 
	C166.544006,84.092003 165.824661,84.217621 164.807770,84.258087 
	C164.007355,84.451324 163.504486,84.729706 162.646683,85.061775 
	C159.736221,86.283173 156.449036,87.038841 158.941376,91.436615 
	C158.956879,92.333572 158.978897,92.846947 159.000916,93.360321 
	C155.185089,93.037117 151.828690,88.106750 147.016205,92.593460 
	C142.644211,96.063538 138.826447,99.160629 135.008682,102.257721 
	C132.590515,104.867424 130.197144,107.500671 127.746971,110.079971 
	C125.444176,112.504143 125.467018,114.929543 127.788712,118.024918 
	C128.355682,119.071457 128.709000,119.523293 129.062317,119.975128 
	C129.319824,120.764847 129.577316,121.554565 129.553741,122.802834 
	C124.911621,122.513649 121.219864,123.180054 119.547592,127.962753 
	C116.820839,135.761292 116.548531,143.533752 119.894279,151.243820 
	C121.198418,154.249115 123.155357,156.243332 127.137314,155.716492 
	C128.004791,155.908798 128.514404,155.954224 129.024017,155.999664 
	C125.853828,162.309570 117.948692,161.432953 114.556999,154.700546 
	C108.270859,142.222717 110.546318,129.956497 116.049706,117.941925 
	C119.267921,110.916168 119.355934,110.783714 112.759026,105.164825 
	C108.430206,101.259109 104.505989,97.792587 100.581772,94.326073 
	C97.659142,88.453926 94.968971,87.352058 89.335503,89.728600 
	C76.498184,95.144180 63.393291,96.280952 49.960941,92.197670 
	C49.802216,92.149414 49.618526,92.121246 49.496964,92.021935 
	C46.899315,89.899635 44.308895,87.768501 41.717072,85.639084 
	C43.903603,83.416557 46.090130,81.194031 48.646889,79.336395 
	C49.077469,80.147545 49.137810,80.593803 49.080063,81.419128 
	C50.374413,83.526207 51.462254,86.215302 53.253929,86.820427 
	C62.339497,89.888969 71.575722,89.680145 80.700699,86.622925 
	C84.331581,85.406448 86.867279,83.379242 86.396782,79.014435 
	C87.862480,79.223480 88.974144,79.432495 90.085800,79.641502 
	C95.161499,82.209373 97.778290,81.302490 104.283524,74.531105 
	C108.196449,70.902466 111.629807,67.650146 115.007706,64.341209 
	C115.299248,64.055618 115.223892,63.395489 115.318977,62.909340 
	C120.038025,58.825829 120.210526,57.573330 116.932068,52.537628 
	C116.152611,51.340374 115.581360,50.007561 115.297058,48.382874 
	C119.703911,50.855175 122.369865,49.043163 124.369682,45.383888 
	C127.913773,38.898922 127.822456,32.001411 126.307938,25.047638 
	C125.328178,20.549208 123.975304,16.210928 118.123405,15.908637 
	C117.746513,15.889170 117.430817,14.684996 117.086647,14.031931 
	C118.004761,13.288718 118.922874,12.545504 120.348099,11.479995 
	C122.545708,11.501441 124.236198,11.845181 125.926697,12.188923 
	C127.980568,15.233886 130.034439,18.278849 132.187393,21.932430 
	C132.531876,23.024588 132.777283,23.508127 133.022690,23.991669 
	C135.082672,33.745636 133.888092,43.258556 129.391876,51.977814 
	C126.718826,57.161499 127.166710,60.915009 131.633240,65.127487 
	C132.584869,66.205055 133.155991,66.782806 133.842926,67.559944 
	C134.166687,67.985603 134.378220,68.208488 134.700363,68.743828 
	C136.568176,71.001717 138.328949,72.943756 140.555801,75.200287 
	C141.622513,75.963287 142.223129,76.411804 142.892441,77.050041 
	C143.622086,77.794235 144.283051,78.348709 144.944016,78.903183 
M119.119606,103.055740 
	C122.603539,107.536171 123.346031,107.343117 126.726112,100.854988 
	C127.505203,99.809631 128.284286,98.764275 129.693787,97.353920 
	C132.683334,94.984909 135.923172,92.856636 138.543472,90.132454 
	C139.644684,88.987579 140.397537,85.920509 139.666153,84.858139 
	C134.996735,78.075638 129.856461,71.621155 122.678749,66.890717 
	C118.142578,70.835304 113.796478,74.614609 108.948692,78.460426 
	C107.814583,79.314445 106.680466,80.168465 104.765900,81.083878 
	C102.852112,82.152092 100.938332,83.220306 97.992363,84.864655 
	C100.833054,86.601738 102.696289,87.741104 104.939117,89.423470 
	C106.268234,90.272850 107.597351,91.122231 109.369453,92.575478 
	C111.467430,94.476562 113.565414,96.377647 115.938721,98.887917 
	C116.944267,100.063950 117.949814,101.239990 119.119606,103.055740 
z"/>
<path fill="#1860BB" opacity="1.000000" stroke="none" 
	d="
M114.967987,62.695183 
	C115.223892,63.395489 115.299248,64.055618 115.007706,64.341209 
	C111.629807,67.650146 108.196449,70.902466 104.499420,74.221451 
	C98.435860,64.456390 88.450584,61.943027 78.433167,60.107620 
	C70.777100,58.704865 62.905827,58.479416 55.131535,57.717484 
	C52.696617,57.478848 50.265774,57.198601 47.753845,56.928898 
	C47.753845,48.681774 47.753845,40.915665 47.753845,32.777126 
	C56.892509,31.672485 64.680695,35.853996 73.236969,38.543472 
	C71.267784,30.532288 69.423843,23.030594 67.471703,15.088743 
	C77.495506,15.088743 86.020554,15.088743 95.245155,15.088743 
	C95.974892,20.495911 96.627235,26.380302 97.585907,32.214355 
	C99.579346,44.345509 103.419449,55.500446 114.967987,62.695183 
z"/>
<path fill="#115BB9" opacity="1.000000" stroke="none" 
	d="
M135.286072,102.512314 
	C138.826447,99.160629 142.644211,96.063538 146.753784,92.928207 
	C151.305511,96.058670 155.565430,99.227356 160.343811,102.802475 
	C164.638687,104.295952 168.415100,105.382996 172.191498,106.470047 
	C172.595352,106.565704 172.999222,106.661362 173.951920,107.054764 
	C175.714981,107.456772 176.929214,107.561028 178.143433,107.665283 
	C178.554031,107.754715 178.964645,107.844139 179.968674,108.174248 
	C181.777054,108.398636 182.992020,108.382347 184.206970,108.366058 
	C184.610779,108.476334 185.014603,108.586609 185.968307,108.995949 
	C188.571152,109.703003 190.624115,110.111000 192.492355,110.482277 
	C192.047012,115.522308 191.243484,120.250168 191.298477,124.968018 
	C191.392212,133.009537 191.618790,133.006897 183.784882,132.676071 
	C183.387741,132.551437 182.990616,132.426788 182.114761,131.997284 
	C181.029495,131.616425 180.422928,131.540421 179.816376,131.464417 
	C179.419067,131.336548 179.021744,131.208664 178.093018,130.759521 
	C176.709778,130.483383 175.857956,130.528519 175.006119,130.573639 
	C175.358734,131.380981 175.711365,132.188324 176.063995,132.995667 
	C177.080490,135.357468 178.096970,137.719269 179.094086,140.722382 
	C179.471329,142.006744 179.867920,142.649796 180.264526,143.292862 
	C180.378937,143.669861 180.493347,144.046844 180.316254,144.846039 
	C172.420517,145.979095 164.822144,146.772781 157.205750,147.311539 
	C156.063812,147.392319 154.837448,146.279053 153.650146,145.718155 
	C153.495193,144.083176 153.340256,142.448181 153.382294,140.160767 
	C153.329117,138.337067 153.078964,137.165802 152.828827,135.994553 
	C152.749802,135.630386 152.670761,135.266220 152.687103,134.326019 
	C152.528961,133.166870 152.275436,132.583755 152.021896,132.000626 
	C151.890701,131.020889 151.759521,130.041168 151.715256,128.406158 
	C151.436569,127.073463 151.070938,126.396027 150.705322,125.718597 
	C148.318756,116.312691 144.470535,107.871063 135.286072,102.512314 
z"/>
<path fill="#0C58B8" opacity="1.000000" stroke="none" 
	d="
M100.342728,94.651787 
	C104.505989,97.792587 108.430206,101.259109 112.433456,105.036346 
	C104.591110,111.260612 100.656097,119.528358 98.191612,129.461914 
	C97.734375,131.113892 97.685265,132.209534 97.636154,133.305176 
	C97.519974,133.978302 97.403793,134.651428 96.956429,135.925354 
	C96.548943,138.097763 96.472633,139.669342 96.396332,141.240936 
	C96.328079,141.930893 96.259827,142.620834 95.866302,143.892365 
	C92.964172,144.685989 90.389557,145.040634 87.809998,145.081207 
	C81.968338,145.173065 76.124245,145.110092 70.185539,145.110092 
	C70.185539,142.516953 70.185539,140.758392 70.185539,138.999817 
	C70.825668,137.223099 71.465797,135.446396 72.632111,133.283813 
	C74.628578,130.340729 73.915649,128.929764 70.984459,129.623505 
	C68.860733,130.126144 66.914978,131.380798 64.889862,132.300110 
	C63.857952,132.506104 62.826042,132.712112 61.266624,132.610046 
	C60.722630,131.355270 60.763489,130.403473 60.680428,129.462631 
	C60.107147,122.968910 59.508011,116.477463 59.002201,109.759193 
	C59.087212,109.533104 59.016476,109.055229 59.016476,109.055222 
	C66.443985,107.794426 73.871490,106.533630 81.916145,105.486267 
	C86.724396,103.564049 90.915504,101.428398 95.106613,99.292755 
	C95.106613,99.292755 95.427635,99.018738 95.967415,98.980225 
	C97.367493,98.032394 98.227783,97.123077 99.088081,96.213753 
	C99.426620,95.801666 99.765152,95.389587 100.342728,94.651787 
z"/>
<path fill="#0B57B7" opacity="1.000000" stroke="none" 
	d="
M134.593323,68.427979 
	C134.378220,68.208488 134.166687,67.985603 133.934937,67.196259 
	C134.960892,65.472466 136.010635,64.311729 137.060379,63.151005 
	C137.060379,63.151005 137.386551,62.924313 137.926102,62.924107 
	C139.339493,61.995399 140.213318,61.066902 141.087158,60.138401 
	C141.087158,60.138401 141.046921,60.047657 141.435745,60.035927 
	C143.174377,57.957901 144.524185,55.891602 145.873978,53.825302 
	C145.873978,53.825298 145.959442,53.416279 146.425598,53.175781 
	C147.457153,51.470726 148.022552,50.006172 148.587952,48.541618 
	C148.716446,47.916637 148.844940,47.291656 149.389877,46.351433 
	C149.913055,45.364689 150.019806,44.693192 150.126556,44.021698 
	C150.178223,43.597546 150.229904,43.173393 150.716431,42.304192 
	C151.301895,40.760223 151.452484,39.661304 151.603088,38.562382 
	C151.656448,37.919804 151.709824,37.277225 152.132019,36.088150 
	C152.747635,32.709049 152.994415,29.876442 153.241196,27.043835 
	C153.279312,26.320890 153.317444,25.597948 153.868088,24.473961 
	C160.668274,24.359205 166.956223,24.639597 173.243439,24.935204 
	C175.254669,25.029762 177.264008,25.164593 179.274200,25.281002 
	C177.419891,29.633759 175.565582,33.986515 173.711273,38.339272 
	C173.987778,38.643749 174.264282,38.948227 174.540787,39.252705 
	C177.381149,38.089375 180.221497,36.926041 183.732498,35.802227 
	C185.090897,35.475254 185.778671,35.108765 186.466431,34.742271 
	C187.748108,34.458408 189.029800,34.174549 190.549973,33.945183 
	C190.788467,33.999680 190.804565,34.434280 190.781677,34.812679 
	C191.156311,42.424919 191.553818,49.658756 191.625427,56.949917 
	C190.531403,57.326710 189.763275,57.646183 188.995148,57.965660 
	C186.028625,58.122089 183.062088,58.278511 179.347992,58.341137 
	C177.731964,58.476295 176.863510,58.705250 175.995041,58.934204 
	C174.887558,59.160011 173.780060,59.385818 172.075745,59.482162 
	C169.324066,59.951927 167.169235,60.551155 165.014389,61.150379 
	C164.610748,61.213097 164.207108,61.275818 163.223022,61.302620 
	C161.967789,61.683613 161.292999,62.100521 160.618195,62.517433 
	C159.997406,62.698147 159.376633,62.878857 158.155090,63.087067 
	C156.899490,63.556190 156.244644,63.997822 155.589813,64.439453 
	C155.250641,64.585281 154.911469,64.731094 154.031158,64.984955 
	C152.880707,65.602859 152.271408,66.112709 151.662109,66.622559 
	C149.345978,69.006737 147.029846,71.390915 144.314804,74.473053 
	C143.551865,75.734123 143.187805,76.297218 142.823761,76.860321 
	C142.223129,76.411804 141.622513,75.963287 140.706635,74.840721 
	C141.109467,71.716301 141.827560,69.265930 142.841171,65.807121 
	C139.462051,66.880875 137.027695,67.654427 134.593323,68.427979 
z"/>
<path fill="#FEF9F1" opacity="1.000000" stroke="none" 
	d="
M116.730782,14.066475 
	C117.430817,14.684996 117.746513,15.889170 118.123405,15.908637 
	C123.975304,16.210928 125.328178,20.549208 126.307938,25.047638 
	C127.822456,32.001411 127.913773,38.898922 124.369682,45.383888 
	C122.369865,49.043163 119.703911,50.855175 115.326584,48.003014 
	C114.973389,47.977375 115.000023,47.989368 114.958328,47.606853 
	C114.620262,46.107372 114.249001,45.004208 114.040154,43.871109 
	C113.005867,38.259441 112.014488,32.639862 111.007980,27.023073 
	C111.205460,22.054724 112.487450,17.536804 116.730782,14.066475 
z"/>
<path fill="#FEFCF7" opacity="1.000000" stroke="none" 
	d="
M126.779449,155.569611 
	C123.155357,156.243332 121.198418,154.249115 119.894279,151.243820 
	C116.548531,143.533752 116.820839,135.761292 119.547592,127.962753 
	C121.219864,123.180054 124.911621,122.513649 129.599213,123.120300 
	C130.925674,123.765411 131.925598,124.551582 132.577118,125.750504 
	C131.827255,127.139435 131.088440,128.112076 131.078201,129.092346 
	C131.001770,136.416824 131.069443,143.742798 131.056610,151.307556 
	C131.021255,151.546814 130.982712,152.028976 130.982712,152.028976 
	C130.982712,152.028976 130.995010,151.997772 130.683594,152.038269 
	C129.174606,153.242386 127.977028,154.405991 126.779449,155.569611 
z"/>
<path fill="#4F86CC" opacity="1.000000" stroke="none" 
	d="
M179.588333,25.110151 
	C177.264008,25.164593 175.254669,25.029762 173.243439,24.935204 
	C166.956223,24.639597 160.668274,24.359205 153.979141,24.127905 
	C153.814957,20.815420 154.052261,17.447950 154.291718,14.049964 
	C164.032394,14.049964 172.875549,14.049964 182.688599,14.049964 
	C181.725189,17.815327 180.813828,21.377316 179.588333,25.110151 
z"/>
<path fill="#87ADDC" opacity="1.000000" stroke="none" 
	d="
M69.905571,139.248596 
	C70.185539,140.758392 70.185539,142.516953 70.185539,145.110092 
	C76.124245,145.110092 81.968338,145.173065 87.809998,145.081207 
	C90.389557,145.040634 92.964172,144.685989 95.839081,144.238068 
	C96.052887,146.909180 96.183990,149.849030 95.748322,152.702347 
	C95.623627,153.519028 93.869118,154.656097 92.843132,154.675964 
	C84.545654,154.836777 76.243690,154.766190 66.474632,154.766190 
	C67.607590,149.276154 68.616592,144.386749 69.905571,139.248596 
z"/>
<path fill="#A8C5E6" opacity="1.000000" stroke="none" 
	d="
M183.956482,132.967529 
	C191.618790,133.006897 191.392212,133.009537 191.298477,124.968018 
	C191.243484,120.250168 192.047012,115.522308 192.492355,110.482277 
	C190.624115,110.111000 188.571152,109.703003 186.283447,108.986649 
	C190.412628,108.906464 194.798508,108.965195 199.119629,109.524246 
	C199.867996,109.621063 200.829666,111.823982 200.861038,113.074959 
	C201.018967,119.372765 200.848557,125.677940 200.904648,131.979553 
	C200.928879,134.701004 199.766190,136.233521 197.060471,135.808044 
	C192.723312,135.126038 188.436295,134.125122 183.956482,132.967529 
z"/>
<path fill="#76A2D7" opacity="1.000000" stroke="none" 
	d="
M153.470795,146.141510 
	C154.837448,146.279053 156.063812,147.392319 157.205750,147.311539 
	C164.822144,146.772781 172.420517,145.979095 180.339020,145.141663 
	C181.564117,147.681946 182.474945,150.348785 183.700500,153.937149 
	C173.625885,153.937149 164.823090,154.293869 156.069519,153.791946 
	C151.448593,153.526993 153.794098,149.180313 153.470795,146.141510 
z"/>
<path fill="#9CBCE2" opacity="1.000000" stroke="none" 
	d="
M189.274261,58.253925 
	C189.763275,57.646183 190.531403,57.326710 192.038040,57.019341 
	C194.137451,56.847408 195.498367,56.663376 196.238449,56.563297 
	C195.805023,49.764423 195.252045,43.618515 195.085281,37.462139 
	C194.994980,34.128586 193.686844,33.388817 190.804565,34.434280 
	C190.804565,34.434280 190.788467,33.999680 190.929840,33.834156 
	C194.734818,32.615128 198.398422,31.561619 202.837372,30.285160 
	C202.837372,39.410675 202.956375,47.122250 202.703598,54.821621 
	C202.667435,55.922649 200.956329,57.702885 199.807663,57.894665 
	C196.447205,58.455719 192.979218,58.372787 189.274261,58.253925 
z"/>
<path fill="#9FBDE3" opacity="1.000000" stroke="none" 
	d="
M56.004532,134.302307 
	C53.974861,134.632523 51.811867,135.510483 49.971611,135.062546 
	C49.047760,134.837662 48.259048,132.219910 48.190884,130.650345 
	C47.954819,125.214378 48.257168,119.753372 47.975044,114.321609 
	C47.757435,110.131866 49.246876,108.406792 53.734966,109.939194 
	C54.695351,118.501297 55.349941,126.401802 56.004532,134.302307 
z"/>
<path fill="#3A78C5" opacity="1.000000" stroke="none" 
	d="
M56.396652,134.266602 
	C55.349941,126.401802 54.695351,118.501297 54.021431,110.177582 
	C54.388966,109.717552 54.775837,109.680740 55.827915,109.728287 
	C57.301147,109.870186 58.109165,109.927734 58.917191,109.985283 
	C59.508011,116.477463 60.107147,122.968910 60.680428,129.462631 
	C60.763489,130.403473 60.722630,131.355270 60.869286,132.649628 
	C59.595901,133.408478 58.192341,133.819687 56.396652,134.266602 
z"/>
<path fill="#FAE8CC" opacity="1.000000" stroke="none" 
	d="
M195.799408,89.930679 
	C196.305725,90.580612 196.812042,91.230545 197.656616,91.933640 
	C196.933472,92.835213 195.961563,94.258194 194.796234,94.439713 
	C186.624207,95.712677 178.413803,96.741547 170.207367,97.783012 
	C169.885849,97.823814 169.480209,97.201736 169.231171,96.362076 
	C169.529022,95.310341 169.709442,94.785049 170.363159,94.183365 
	C179.321259,93.694084 188.190994,95.582024 195.799408,89.930679 
z"/>
<path fill="#FAECD3" opacity="1.000000" stroke="none" 
	d="
M49.198151,81.040062 
	C49.137810,80.593803 49.077469,80.147545 49.004280,79.363129 
	C51.693836,77.839027 54.305054,75.958221 57.114693,75.589539 
	C68.243645,74.129234 79.297432,74.421989 89.968887,79.310677 
	C88.974144,79.432495 87.862480,79.223480 86.117340,78.919113 
	C83.563286,78.684525 81.599319,78.756042 79.729324,78.371094 
	C69.271919,76.218407 58.960384,75.382706 49.198151,81.040062 
z"/>
<path fill="#FAEACF" opacity="1.000000" stroke="none" 
	d="
M131.091949,151.068314 
	C131.069443,143.742798 131.001770,136.416824 131.078201,129.092346 
	C131.088440,128.112076 131.827255,127.139435 132.607224,126.097382 
	C133.323700,133.033127 133.729050,140.032776 133.933914,147.038284 
	C133.968460,148.219742 133.138000,149.426483 132.132996,150.825607 
	C131.558792,151.029663 131.091949,151.068314 131.091949,151.068314 
z"/>
<path fill="#F8E0BA" opacity="1.000000" stroke="none" 
	d="
M111.004593,27.393515 
	C112.014488,32.639862 113.005867,38.259441 114.040154,43.871109 
	C114.249001,45.004208 114.620262,46.107372 114.952423,47.618057 
	C110.611221,46.807816 111.435730,42.958817 110.860260,38.982162 
	C110.894592,35.413887 110.899643,32.700054 110.904701,29.986219 
	C110.936874,29.245464 110.969048,28.504711 111.004593,27.393515 
z"/>
<path fill="#F6D8AA" opacity="1.000000" stroke="none" 
	d="
M169.889862,94.259758 
	C169.709442,94.785049 169.529022,95.310341 169.115311,96.011909 
	C165.639420,95.470612 162.396820,94.753044 159.077560,93.697891 
	C158.978897,92.846947 158.956879,92.333572 159.311386,91.455688 
	C163.088547,92.147377 166.489212,93.203568 169.889862,94.259758 
z"/>
<path fill="#4F88CB" opacity="1.000000" stroke="none" 
	d="
M94.749481,99.268921 
	C90.915504,101.428398 86.724396,103.564049 82.292030,105.472992 
	C86.164627,103.245895 90.278488,101.245491 94.749481,99.268921 
z"/>
<path fill="#A8C5E6" opacity="1.000000" stroke="none" 
	d="
M172.044418,106.162903 
	C168.415100,105.382996 164.638687,104.295952 160.676605,102.918976 
	C164.293060,103.704613 168.095200,104.780182 172.044418,106.162903 
z"/>
<path fill="#3A78C5" opacity="1.000000" stroke="none" 
	d="
M65.240135,132.420074 
	C66.914978,131.380798 68.860733,130.126144 70.984459,129.623505 
	C73.915649,128.929764 74.628578,130.340729 72.855888,133.000854 
	C70.572655,128.714127 67.874847,133.179764 65.240135,132.420074 
z"/>
<path fill="#FEF9F1" opacity="1.000000" stroke="none" 
	d="
M110.531448,30.083397 
	C110.899643,32.700054 110.894592,35.413887 110.815659,38.575119 
	C107.719109,36.261871 108.656296,33.239861 110.531448,30.083397 
z"/>
<path fill="#4F86CC" opacity="1.000000" stroke="none" 
	d="
M153.005005,27.326065 
	C152.994415,29.876442 152.747635,32.709049 152.218323,35.776802 
	C152.213455,33.210732 152.491135,30.409515 153.005005,27.326065 
z"/>
<path fill="#4F86CC" opacity="1.000000" stroke="none" 
	d="
M145.572571,53.957603 
	C144.524185,55.891602 143.174377,57.957901 141.481110,60.056076 
	C142.515472,58.088604 143.893326,56.089256 145.572571,53.957603 
z"/>
<path fill="#9CBCE2" opacity="1.000000" stroke="none" 
	d="
M165.259140,61.386364 
	C167.169235,60.551155 169.324066,59.951927 171.744003,59.554543 
	C169.840698,60.378365 167.672287,61.000355 165.259140,61.386364 
z"/>
<path fill="#F6D9AA" opacity="1.000000" stroke="none" 
	d="
M127.137314,155.716492 
	C127.977028,154.405991 129.174606,153.242386 130.697998,152.029663 
	C130.597946,153.290085 130.172089,154.599609 129.385132,155.954391 
	C128.514404,155.954224 128.004791,155.908798 127.137314,155.716492 
z"/>
<path fill="#FEF9F1" opacity="1.000000" stroke="none" 
	d="
M125.905151,11.814450 
	C124.236198,11.845181 122.545708,11.501441 120.478241,11.211173 
	C122.171013,6.630222 124.014709,9.450749 125.905151,11.814450 
z"/>
<path fill="#87ADDC" opacity="1.000000" stroke="none" 
	d="
M96.696060,141.102921 
	C96.472633,139.669342 96.548943,138.097763 96.918816,136.265060 
	C97.140190,137.657608 97.067993,139.311249 96.696060,141.102921 
z"/>
<path fill="#4F86CC" opacity="1.000000" stroke="none" 
	d="
M136.703156,63.116760 
	C136.010635,64.311729 134.960892,65.472466 133.819138,66.996880 
	C133.155991,66.782806 132.584869,66.205055 131.884827,65.340309 
	C133.285934,64.396385 134.815933,63.739456 136.703156,63.116760 
z"/>
<path fill="#76A2D7" opacity="1.000000" stroke="none" 
	d="
M152.612640,136.229874 
	C153.078964,137.165802 153.329117,138.337067 153.359131,139.748062 
	C152.891479,138.813599 152.643967,137.639404 152.612640,136.229874 
z"/>
<path fill="#A8C5E6" opacity="1.000000" stroke="none" 
	d="
M176.317261,132.867004 
	C175.711365,132.188324 175.358734,131.380981 175.006119,130.573639 
	C175.857956,130.528519 176.709778,130.483383 177.781235,130.721252 
	C177.524078,131.582291 177.047302,132.160324 176.317261,132.867004 
z"/>
<path fill="#A8C5E6" opacity="1.000000" stroke="none" 
	d="
M178.053131,107.360596 
	C176.929214,107.561028 175.714981,107.456772 174.263947,107.064156 
	C175.339020,106.869171 176.650925,106.962540 178.053131,107.360596 
z"/>
<path fill="#A8C5E6" opacity="1.000000" stroke="none" 
	d="
M184.056976,108.099648 
	C182.992020,108.382347 181.777054,108.398636 180.284760,108.168594 
	C181.307281,107.892593 182.607132,107.862915 184.056976,108.099648 
z"/>
<path fill="#4F86CC" opacity="1.000000" stroke="none" 
	d="
M148.295349,48.699730 
	C148.022552,50.006172 147.457153,51.470726 146.549286,53.007397 
	C146.805450,51.672291 147.404083,50.265068 148.295349,48.699730 
z"/>
<path fill="#4F88CB" opacity="1.000000" stroke="none" 
	d="
M98.766769,96.222145 
	C98.227783,97.123077 97.367493,98.032394 96.166809,98.911118 
	C96.699440,97.997185 97.572456,97.113861 98.766769,96.222145 
z"/>
<path fill="#D1DCE1" opacity="1.000000" stroke="none" 
	d="
M142.892441,77.050041 
	C143.187805,76.297218 143.551865,75.734123 144.254395,74.802910 
	C144.719543,75.626587 144.846207,76.818375 144.958435,78.456673 
	C144.283051,78.348709 143.622086,77.794235 142.892441,77.050041 
z"/>
<path fill="#4F86CC" opacity="1.000000" stroke="none" 
	d="
M140.763626,60.159546 
	C140.213318,61.066902 139.339493,61.995399 138.119873,62.880527 
	C138.662750,61.951668 139.551422,61.066181 140.763626,60.159546 
z"/>
<path fill="#9CBCE2" opacity="1.000000" stroke="none" 
	d="
M176.141312,59.192375 
	C176.863510,58.705250 177.731964,58.476295 178.917511,58.427525 
	C178.252258,58.888653 177.269928,59.169598 176.141312,59.192375 
z"/>
<path fill="#4F86CC" opacity="1.000000" stroke="none" 
	d="
M151.326599,38.756851 
	C151.452484,39.661304 151.301895,40.760223 150.831604,42.004005 
	C150.691315,41.083019 150.870697,40.017166 151.326599,38.756851 
z"/>
<path fill="#87ADDC" opacity="1.000000" stroke="none" 
	d="
M97.906998,133.098938 
	C97.685265,132.209534 97.734375,131.113892 98.074234,129.832825 
	C98.302605,130.729172 98.240234,131.810944 97.906998,133.098938 
z"/>
<path fill="#9FBDE3" opacity="1.000000" stroke="none" 
	d="
M59.002197,109.759193 
	C58.109165,109.927734 57.301147,109.870186 56.112720,109.664734 
	C56.725132,109.186188 57.717953,108.855553 58.863625,108.790070 
	C59.016476,109.055229 59.087212,109.533104 59.002197,109.759193 
z"/>
<path fill="#FEFCF7" opacity="1.000000" stroke="none" 
	d="
M129.280762,119.800140 
	C128.709000,119.523293 128.355682,119.071457 128.010590,118.309189 
	C128.512283,118.540886 129.005753,119.083015 129.280762,119.800140 
z"/>
<path fill="#9CBCE2" opacity="1.000000" stroke="none" 
	d="
M160.913071,62.655228 
	C161.292999,62.100521 161.967789,61.683613 162.933838,61.404869 
	C162.552704,61.959698 161.880325,62.376362 160.913071,62.655228 
z"/>
<path fill="#76A2D7" opacity="1.000000" stroke="none" 
	d="
M150.552872,125.998398 
	C151.070938,126.396027 151.436569,127.073463 151.671600,128.038147 
	C151.160828,127.642998 150.780624,126.960602 150.552872,125.998398 
z"/>
<path fill="#4F86CC" opacity="1.000000" stroke="none" 
	d="
M149.873352,44.197510 
	C150.019806,44.693192 149.913055,45.364689 149.536392,46.067104 
	C149.384354,45.523125 149.502243,44.948223 149.873352,44.197510 
z"/>
<path fill="#9CBCE2" opacity="1.000000" stroke="none" 
	d="
M155.898865,64.578682 
	C156.244644,63.997822 156.899490,63.556190 157.852936,63.202057 
	C157.503662,63.765671 156.855789,64.241791 155.898865,64.578682 
z"/>
<path fill="#A8C5E6" opacity="1.000000" stroke="none" 
	d="
M179.869049,131.719055 
	C180.422928,131.540421 181.029495,131.616425 181.802521,131.971680 
	C181.286560,132.158508 180.604141,132.066101 179.869049,131.719055 
z"/>
<path fill="#76A2D7" opacity="1.000000" stroke="none" 
	d="
M151.840790,132.162277 
	C152.275436,132.583755 152.528961,133.166870 152.624359,134.053680 
	C152.197388,133.679535 151.928528,133.001724 151.840790,132.162277 
z"/>
<path fill="#9CBCE2" opacity="1.000000" stroke="none" 
	d="
M151.987823,66.704254 
	C152.271408,66.112709 152.880707,65.602859 153.799240,65.136909 
	C153.510162,65.715866 152.911850,66.250908 151.987823,66.704254 
z"/>
<path fill="#76A2D7" opacity="1.000000" stroke="none" 
	d="
M180.418289,143.009689 
	C179.867920,142.649796 179.471329,142.006744 179.166718,141.071350 
	C179.696487,141.428177 180.134277,142.077347 180.418289,143.009689 
z"/>
<path fill="#9CBCE2" opacity="1.000000" stroke="none" 
	d="
M186.178543,34.558865 
	C185.778671,35.108765 185.090897,35.475254 184.110703,35.731903 
	C184.509064,35.206524 185.199860,34.790989 186.178543,34.558865 
z"/>
<path fill="#FEF9F1" opacity="1.000000" stroke="none" 
	d="
M133.239624,23.845407 
	C132.777283,23.508127 132.531876,23.024588 132.352875,22.259928 
	C132.765060,22.552254 133.110825,23.125702 133.239624,23.845407 
z"/>
<path fill="#F6D9AA" opacity="1.000000" stroke="none" 
	d="
M131.056610,151.307556 
	C131.091949,151.068314 131.558792,151.029663 131.792862,151.015305 
	C131.841660,151.286453 131.656387,151.571960 131.226913,151.943222 
	C130.982712,152.028976 131.021255,151.546814 131.056610,151.307556 
z"/>
<path fill="#F9FAF9" opacity="1.000000" stroke="none" 
	d="
M109.450378,78.393913 
	C113.796478,74.614609 118.142578,70.835304 122.678749,66.890717 
	C129.856461,71.621155 134.996735,78.075638 139.666153,84.858139 
	C140.397537,85.920509 139.644684,88.987579 138.543472,90.132454 
	C135.923172,92.856636 132.683334,94.984909 128.928192,97.379776 
	C123.996185,97.696671 119.829788,97.987701 115.663391,98.278732 
	C113.565414,96.377647 111.467430,94.476562 109.340225,91.833832 
	C109.357452,86.859436 109.403915,82.626671 109.450378,78.393913 
z"/>
<path fill="#FEFAF3" opacity="1.000000" stroke="none" 
	d="
M49.080067,81.419128 
	C58.960384,75.382706 69.271919,76.218407 79.729324,78.371094 
	C81.599319,78.756042 83.563286,78.684525 85.763306,78.919083 
	C86.867279,83.379242 84.331581,85.406448 80.700699,86.622925 
	C71.575722,89.680145 62.339497,89.888969 53.253929,86.820427 
	C51.462254,86.215302 50.374413,83.526207 49.080067,81.419128 
z"/>
<path fill="#FFFEFC" opacity="1.000000" stroke="none" 
	d="
M170.363159,94.183365 
	C166.489212,93.203568 163.088547,92.147377 159.317886,91.072105 
	C156.449036,87.038841 159.736221,86.283173 162.794891,85.283615 
	C163.900467,85.082260 164.502884,84.712753 165.105301,84.343239 
	C165.824661,84.217621 166.544006,84.092003 167.814285,84.225876 
	C169.274185,84.086761 170.183167,83.688156 171.092133,83.289551 
	C175.068848,83.208748 179.045547,83.127953 183.542664,83.445999 
	C185.042068,83.896309 186.021103,83.947777 187.000122,83.999245 
	C190.636887,84.625282 194.548065,84.780045 195.882019,89.574875 
	C188.190994,95.582024 179.321259,93.694084 170.363159,94.183365 
z"/>
<path fill="#3C76BB" opacity="1.000000" stroke="none" 
	d="
M109.199539,78.427170 
	C109.403915,82.626671 109.357452,86.859436 109.118729,91.531906 
	C107.597351,91.122231 106.268234,90.272850 104.850861,88.728989 
	C105.023857,85.697174 105.285095,83.359825 105.546341,81.022484 
	C106.680466,80.168465 107.814583,79.314445 109.199539,78.427170 
z"/>
<path fill="#437CBE" opacity="1.000000" stroke="none" 
	d="
M115.801056,98.583328 
	C119.829788,97.987701 123.996185,97.696671 128.612976,97.562286 
	C128.284286,98.764275 127.505203,99.809631 126.066742,100.971725 
	C123.256706,101.530983 121.106026,101.973503 118.955353,102.416031 
	C117.949814,101.239990 116.944267,100.063950 115.801056,98.583328 
z"/>
<path fill="#D1DCE1" opacity="1.000000" stroke="none" 
	d="
M134.700363,68.743828 
	C137.027695,67.654427 139.462051,66.880875 142.841171,65.807121 
	C141.827560,69.265930 141.109467,71.716301 140.240540,74.526230 
	C138.328949,72.943756 136.568176,71.001717 134.700363,68.743828 
z"/>
<path fill="#E9E3D5" opacity="1.000000" stroke="none" 
	d="
M105.156120,81.053177 
	C105.285095,83.359825 105.023857,85.697174 104.661064,88.457489 
	C102.696289,87.741104 100.833054,86.601738 97.992363,84.864655 
	C100.938332,83.220306 102.852112,82.152092 105.156120,81.053177 
z"/>
<path fill="#E3E0D3" opacity="1.000000" stroke="none" 
	d="
M119.037476,102.735886 
	C121.106026,101.973503 123.256706,101.530983 125.823441,101.146484 
	C123.346031,107.343117 122.603539,107.536171 119.037476,102.735886 
z"/>
<path fill="#FAE8CC" opacity="1.000000" stroke="none" 
	d="
M170.760666,83.191620 
	C170.183167,83.688156 169.274185,84.086761 168.180954,84.234802 
	C168.807541,83.687378 169.618362,83.390526 170.760666,83.191620 
z"/>
<path fill="#FAE8CC" opacity="1.000000" stroke="none" 
	d="
M186.775085,83.746964 
	C186.021103,83.947777 185.042068,83.896309 183.990234,83.546951 
	C184.794983,83.330933 185.672516,83.412804 186.775085,83.746964 
z"/>
<path fill="#FAE8CC" opacity="1.000000" stroke="none" 
	d="
M164.807770,84.258087 
	C164.502884,84.712753 163.900467,85.082260 163.149841,85.229935 
	C163.504486,84.729706 164.007355,84.451324 164.807770,84.258087 
z"/>
<path fill="#3775C4" opacity="1.000000" stroke="none" 
	d="
M190.781677,34.812679 
	C193.686844,33.388817 194.994980,34.128586 195.085281,37.462139 
	C195.252045,43.618515 195.805023,49.764423 196.238449,56.563297 
	C195.498367,56.663376 194.137451,56.847408 192.363922,56.962021 
	C191.553818,49.658756 191.156311,42.424919 190.781677,34.812679 
z"/>
</svg>